<svg xmlns="http://www.w3.org/2000/svg" viewBox="0 0 1169.42 235.41"><defs><style>.cls-1{fill:#f4f4f5;}</style></defs><title>jcsignature</title><g id="Layer_2" data-name="Layer 2"><g id="Draw_Layer" data-name="Draw Layer"><path class="cls-1" d="M319.59,82.56c-8.24,3.21-16.45,6.53-24.71,9.7-4.47,1.72-8.93,3.51-13.53,4.85-2.33.68-4.69,1.3-7.06,1.81a15.89,15.89,0,0,1-6.89.36,71.48,71.48,0,0,0,2.66-13.61c.28-4.43.35-9.42-.69-13.76-.42-1.76-1.17-3.85-3.21-4.05s-4.17.6-6.08,1.18c-2.13.66-4.28,1.27-6.4,2a28.74,28.74,0,0,1-6,1.77c0-1.92-.1-3.83-.24-5.75,0-.46,0-.92-.09-1.37-.1-.84-.18-.9-1.07-1.09,2.77-3.3,5.49-6.69,8.44-9.83s5.69-5.95,8.26-9.16,5.55-6.18,8.26-9.36c.65-.77,1.28-1.55,1.88-2.36a12.16,12.16,0,0,0,1.74-2.45,9.94,9.94,0,0,0,.09-3.26c0-1.08-.08-2.15-.15-3.23,0-.16-.26-1.64-.22-1.66-2.42,1.45-4.78,3-7.12,4.61a33.87,33.87,0,0,0-3.29,2.39A3.15,3.15,0,0,0,262.92,33c-5.22,5.29-10.32,10.62-15.73,15.71s-11.31,10.06-17,15.07c-11.3,10-22.67,20-34.44,29.4-3.16,2.54-6.34,5.06-9.69,7.36s-6.85,4.67-10.7,5.78c4-6.11,9-11.39,13.87-16.79A87.57,87.57,0,0,0,196,81.82c2.06-2.91,1.43-6.64,1.19-10,0-.17-.22-2-.26-1.94-3.8,1.38-7,5-9.84,7.76-3.47,3.38-6.94,6.77-10.44,10.13-6.51,6.25-13.34,12.38-21.38,16.61-4.09,2.15-9.48,4.55-14.22,3.54.91-1.77,2.6-3.13,3.58-4.89s.51-4.55.42-6.56c.67-.77,1.33-1.55,2-2.33a3.94,3.94,0,0,0,.85-3c0-1.77,0-3.54-.09-5.3-.08-2-.17-4-.38-5.92-.14-1.27-.09-1.2-1.46-1a20.5,20.5,0,0,0-5.88,2.41c-3.79,1.91-7.43,4.17-11,6.43-4.26,2.67-8.37,5.46-12.45,8.41,7.93-11.63,16-23.18,23.43-35.14,7.11-11.46,14.51-23.36,18.2-36.45a37.33,37.33,0,0,0,1.52-10.81c0-.68-.58-9.61-.66-9.59a11.94,11.94,0,0,0-5.32,3.63q-2.41,2.6-4.86,5.16c-3.45,3.63-6.87,7.25-10.11,11.08C132.1,32,125.35,39.88,118.93,48.08c-12.61,16.12-24.77,33-34,51.34-5.11,10.1-9.49,20.85-8.61,32.37C62.08,146,48.49,160.88,35,175.81c-6.71,7.44-13.25,15.05-19.82,22.61C11.94,202.19,8.68,206,5.77,210,3.15,213.66.25,217.27,0,221.9c-.11,2.49,0,5,.12,7.49.07,1.62-.31,4.47,1,5.66s4.25-.85,5.55-1.51a31.29,31.29,0,0,0,5.6-3.56A162.82,162.82,0,0,0,33.1,208.9c13-15.56,25.45-31.71,37.49-48.06,3-4,5.92-8.09,8.88-12.14L84,142.53c1.4-1.92,3.56-3.4,5.34-5,3.72-3.29,7.52-6.42,11.44-9.47s7.84-6.34,11.94-9.24c2-1.41,4-2.81,6-4.22a88.35,88.35,0,0,0-7.62,12.71,14.22,14.22,0,0,0-1,6.63c0,.58.49,6.75.49,6.76,3-1.13,5-3.49,7.23-5.68,2.43-2.4,4.7-4.95,6.93-7.54q6.86-8,13.48-16.14c.09,1.38-.07,3.12,1.09,4.08a6.55,6.55,0,0,0,3.72,1.15,23,23,0,0,0,10-2c6.53-2.63,12.41-6.68,17.86-11.08-.74,2-.49,4.38-.4,6.52.08,1.8-.37,4.81,2,5,2.09.17,4.35-.87,6.22-1.69a65,65,0,0,0,6.68-3.6c8.8-5.16,17-11.57,25-17.81,0,1.88,0,3.76.12,5.64a13.69,13.69,0,0,0,.65,4.83c1.31-.24,2.61-1.94,3.58-2.78,1.33-1.16,2.53-2.44,3.75-3.71s2.51-2.57,3.71-3.9a25.39,25.39,0,0,1,1.77-2,28,28,0,0,1,2.33-1.67c2.92-2.09,5.79-4.28,8.85-6.17,2.74-1.69,5.61-3.18,8.31-4.93,0,.82,0,1.63.08,2.45a8.66,8.66,0,0,0,.21,2.81c.27.58-.16.35.66.46a14.91,14.91,0,0,0,3-.07,22.74,22.74,0,0,0,5.61-1.34,75.26,75.26,0,0,1,11.2-3c1.63-.27,3.39-.49,4.38,1.07.83,1.31-.34,4.12-.73,5.55l0-.09c-.67,2.47-1.31,4.94-2,7.4a26.6,26.6,0,0,0-1.25,6.4,70.19,70.19,0,0,0,.23,7.21c.17,2.15.55,3.07,2.7,3.63a15.3,15.3,0,0,0,6.76-.14q3.69-.71,7.33-1.66c5.76-1.49,9.4-2.72,11.47-3.47l1.79-.67M371.79,70.3,84.23,108.68C90.73,96,99.11,84.17,107.83,72.92c4.37-5.64,8.91-11.13,13.54-16.55s9.68-10.72,14.68-16c2.81-2.95,5.54-6,8.53-8.79s5.94-5.38,8.66-8.29a177.93,177.93,0,0,1-12.81,22.44C135.74,53,130.81,60.08,125.74,67,115.4,81.21,105,95.29,94.32,109.23c-2.93,3.83-5.82,7.69-8.82,11.46-2.88,3.6-5.59,7.5-8.85,10.75-.08-4,1.27-7.95,2.62-11.61a100.35,100.35,0,0,1,5-11.14Zm26.09,29.91h0ZM159.53,7h0Z"/><path class="cls-1" d="M480.57,0c-1,0-2,0-2.95.06L472,.41c-.79,0-1.57.07-2.35.18L459.23,1.94c-5.64.73-11.26,1.66-16.89,2.5-5.08.76-10.19,1.33-15.28,2C422.58,7,418.12,7.53,413.64,8l-21.21,2.33c-5,.55-10.09,1.16-15.13,1.78-4,.5-8,1.07-11.89,1.84s-7.67,1.73-11.46,2.79a94.08,94.08,0,0,0-31.4,15,106.49,106.49,0,0,0-8.78,6.92,43.55,43.55,0,0,0-7,8,11.3,11.3,0,0,0-1.83,4.16,10.49,10.49,0,0,0-.12,1.5c-.08,1.53,0,3.08,0,4.6,0,1.23.1,2.46.2,3.69a10.57,10.57,0,0,0,.39,2.7,2,2,0,0,0,1.33,1.51,4.91,4.91,0,0,0,2.33-.06c.91-.18,1.82-.46,2.71-.72,2.14-.62,4.24-1.27,6.33-2,15.08-5.3,28.32-14.94,40-25.71,2.46-2.28,4.74-4.71,7.09-7.09l.75-.75c6.5-.9,13-1.32,19.59-1.73q10.61-.66,21.23-1.31c4.57-.27,9.15-.49,13.72-.88l20-1.72c1.93-.17,3.86-.48,5.79-.73l11-1.4c4.69-.6,9.35-1.4,14-2,5.81-.77,11.63-1.48,17.43-2.34,1.88-.28,3.74-.6,5.61-1A3.63,3.63,0,0,0,494.4,14c.09-2,0-4-.06-6q-.08-2.21-.23-4.41s-.11-3-.41-3.05A83,83,0,0,0,484.76,0h-1.13l-3.05,0ZM369.86,17.16h0ZM319.68,45.78A90.56,90.56,0,0,1,339.39,35a95,95,0,0,1,15-4.38A127.81,127.81,0,0,1,336.93,42a105.87,105.87,0,0,1-20.15,8.1l-3.93,1.14a72.27,72.27,0,0,1,6.82-5.45Z"/><path class="cls-1" d="M410.84,61a10.44,10.44,0,0,1-6.51,1.69c-1.92-.2-2.8-1-4.79-1.06A10.44,10.44,0,0,0,394,63.25q1.27-5,2.56-9.94l2.27-8.82q1.28-4.2,2.58-8.4l1.54-5c.64-2.09,1.4-4.13,2.13-6.19a1.59,1.59,0,0,0,.07-.63c0-.87,0-1.75,0-2.62q0-1-.1-1.92c0-.23,0-.47-.06-.7a1.6,1.6,0,0,0-.12-.62c-1,1.63-2,3.25-3,4.9a1.54,1.54,0,0,0-.07.62c0,.85,0,1.72,0,2.57v.19l-.64,1.9-1.8,5.36c-.27.81-.59,1.62-.82,2.44l-4.89,17.24q-1.58,5.57-3.13,11.15c-1.83.78-3.72,1.44-5.57,2.15L374.25,71c-2.86,1.09-5.76,2.06-8.67,3a85.25,85.25,0,0,1-8.7,2.44c-1.57.33-3.15.55-4.74.75l-2.39.28-1,.11a5.5,5.5,0,0,1-1.05-.1,39.63,39.63,0,0,0-.07,5q0,1.46.15,2.92c0,.36.06.71.09,1.07a2.37,2.37,0,0,0,.18.95c3.75,4.28,7.59,8.48,11.26,12.83,1.72,2,3.48,4.05,5.07,6.2l3.37,4.52a55.93,55.93,0,0,0,4.08,5.38c1.26,1.32,2.69,2.9,4.62,3.05a2.26,2.26,0,0,0,2-.87,9.73,9.73,0,0,0,1.23-2.55c.67-1.76,1.19-3.57,1.77-5.36.47-1.44.85-2.91,1.27-4.37s.85-2.88,1.25-4.33l0-.16h0l0,.07,0-.07a.36.36,0,0,0,0-.08l.09-.34.1-.38v-.05l0-.08v0l0-.15,1.17-4.31h0l.38-1.39-.06.23.9-3.32,0,.07,1.26-4.62-.08.31L388,87l0-.07.06-.23h0v0l.06-.21-.05.18c.57-2.09,1.06-4.2,1.59-6.3l1-4c4-6,6.88-7.12,8.82-7,1.55.14,2.39,1.08,4.79,1.44a12.55,12.55,0,0,0,6.51-.84C410.83,67,410.85,64,410.84,61ZM359.53,85.61c3.84-.8,7.62-1.89,11.38-3,2.75-.8,5.48-1.69,8.21-2.55l7.78-2.46c-.53,1.73-1.09,3.45-1.62,5.17-1.47,4.78-3,9.53-4.48,14.31-.49,1.62-1,3.22-1.46,4.85-.28,1-.55,2-.91,2.91a8.72,8.72,0,0,1-1,2.26,3.39,3.39,0,0,1-2.06,1.12,2.4,2.4,0,0,1-1-.27,6.23,6.23,0,0,1-1.33-.79c-2.16-1.52-3.61-3.74-5.16-5.84l-3.13-4.26c-1-1.39-2.05-2.76-3.15-4.1-1.43-1.75-2.83-3.55-4.31-5.27l-1.22-1.43c1.16-.2,2.32-.42,3.48-.66Zm28.59,1.06v0h0v0ZM384,101.91v0l0-.14,0,.1Zm.21-.77,0-.13v0l0,.16Zm.07-.26v.1l0-.15v.05Zm1.61-5.9,0-.09,0,.09Zm.75-2.77.07-.24-.07.24Z"/><path class="cls-1" d="M433.64,36.15c-13.42,4.1-26.91,8.09-41.28,11.92C381.42,51,370.55,53.69,360,56.19a5.29,5.29,0,0,1,1.17,2.91A5.34,5.34,0,0,1,360,62.57c9.75-3.67,20.64-7.25,32.36-10.44a357.78,357.78,0,0,1,41.28-8.74,9.16,9.16,0,0,1,0-7.24ZM360,61.27h0Z"/><path class="cls-1" d="M657.87,8.65A8,8,0,0,0,655.53,10a30.13,30.13,0,0,0-4.29,4.31c-1.56,1.72-3.25,3.32-4.83,5-2,2.14-3.85,4.4-5.69,6.67a227.71,227.71,0,0,0-17.94,25.08c-2.3,3.78-4.43,7.67-6.37,11.65a85.22,85.22,0,0,1-14,10.86,59.53,59.53,0,0,1-8.6,4.1c-1.8.73-3.65,1.36-5.52,1.92,0-1.37-.06-2.74-.11-4.11,0-.39-.35-8.54-.72-8.5a21,21,0,0,0-3.6.63l-3.31,1.06c-1.36.43-2.66,1-4,1.53l-5.18,2.13c-1.36.56-2.67,1.31-4,2-3.16,1.55-6.37,3-9.49,4.67L546.6,85l-10.23,5.36c-8.92,4.68-17.7,9.64-26.8,14-4.58,2.18-9.17,4.36-13.79,6.43a78,78,0,0,1-14.14,4.92,56.08,56.08,0,0,1-12.43,1.78,12.92,12.92,0,0,1-4.61-.82c.9-1.74,1.82-3.47,2.8-5.17,3.22-5.62,6.75-11.08,10.32-16.48,3.69-5.57,7.55-11,11.5-16.42C493,73.3,496.94,68.14,501,63.1s8.4-9.9,12.87-14.59a96.34,96.34,0,0,1,14.31-12.33,68.74,68.74,0,0,1,16.1-8.34,22.43,22.43,0,0,1,7.85-1.42,9.34,9.34,0,0,1,3.55.84,2.46,2.46,0,0,1,1,.75c-.18.49-.38,1-.59,1.45a25.87,25.87,0,0,1-2.27,3.91,1.66,1.66,0,0,0-.08.68c0,.95,0,1.91,0,2.85,0,.69.06,1.39.11,2.08l.06.76a1.68,1.68,0,0,0,.13.68,32.47,32.47,0,0,0,3-5.64,12.1,12.1,0,0,0,.88-4.62,65.42,65.42,0,0,0-.35-6.54,11.43,11.43,0,0,0-.66-2.58,6.33,6.33,0,0,0-.41-1A2.75,2.75,0,0,0,555.41,19a8,8,0,0,0-2.64-1,11.52,11.52,0,0,0-3-.24,24.67,24.67,0,0,0-7,1.37c-2.28.69-4.49,1.63-6.7,2.53a61.54,61.54,0,0,0-7.28,3.66c-8.83,5-16.2,12-23.27,19.24a293.66,293.66,0,0,0-20,23.32Q476,80,467.42,92.9c-2.51,3.81-4.68,7.81-6.92,11.78a12,12,0,0,0-1.58,5.58c-.08,1.82,0,3.71,0,5.54.06,3.52.14,7.08.54,10.58a14.88,14.88,0,0,0,.62,3,12.57,12.57,0,0,0,1.06,2.24A11.35,11.35,0,0,0,463,134a6.78,6.78,0,0,0,2.22,1.37,13.74,13.74,0,0,0,5.63.76,41.09,41.09,0,0,0,7.38-1c2.15-.42,4.3-.89,6.44-1.39a65.24,65.24,0,0,0,7.1-2.22c5.11-1.84,10-4.21,15-6.42,3.51-1.56,7-3.07,10.51-4.71s7-3.37,10.44-5.1q5.79-2.88,11.62-5.69l17-8.22q-.93,1.06-1.83,2.14l-2.14,2.56-1.58,1.9c-.8,1-.69,2-.74,3.16-.08,2.26,0,4.53.13,6.79q.07,1.48.21,3a2.89,2.89,0,0,0,.22,1.16c1-1,2-2,2.94-3.11l1.85-2c1.24-1.3,2.44-2.64,3.64-4,2.67-2.94,5.38-5.83,8.09-8.73,2.4-2.56,4.86-5,7.34-7.5l4.57-4.56.74-.71c2.34-.28,4.67-.7,7-1.19a68.19,68.19,0,0,0,10.8-3.25,50.13,50.13,0,0,0,10.15-5.58l1.64-1.17-.25.72a16.5,16.5,0,0,0-.74,2.45,23.82,23.82,0,0,0-.31,3.23c-.11,2.32,0,4.67.07,7a71.27,71.27,0,0,0,.81,10,8.33,8.33,0,0,0,.78,2.08c.51,1.05,1.88,1.39,2.88,1.66a12.24,12.24,0,0,0,2.95.27,18.58,18.58,0,0,0,3.21-.29,28.44,28.44,0,0,0,6.79-2.31,78.82,78.82,0,0,0,13.62-8c4.07-2.83,8-5.76,11.88-8.88S658.42,82.14,662,79l0,.58c-.08,1.75,0,3.51,0,5.26.07,2,.14,4.09.37,6.12a11.15,11.15,0,0,0,.3,1.75,2.28,2.28,0,0,0,1.1,1.4,5.38,5.38,0,0,0,1.6.52,8.51,8.51,0,0,0,1.71.12,15.3,15.3,0,0,0,5.74-1.43c1.5-.59,3-1.23,4.43-1.9,1.82-.84,3.56-1.88,5.31-2.86,2.76-1.56,5.47-3.22,8.19-4.84.92-.55,1.8-1.16,2.7-1.75l1.54-1c-.06.79-.07,1.58-.07,2.36a61.17,61.17,0,0,0,.31,7.15,8.7,8.7,0,0,0,1.47,4.1,7.15,7.15,0,0,0,4,2.6,9.14,9.14,0,0,0,3.42,0,29.37,29.37,0,0,0,3.44-.73,43.16,43.16,0,0,0,5.87-1.94c2.33-.92,4.63-1.92,6.9-3,2.09-1,4.15-2,6.21-3.09q0,.07,0,.14c-.06,1.37,0,2.75,0,4.11q.05,1.5.15,3s.06.51.12,1a6.31,6.31,0,0,0,.16,1q3.59-2.65,7.13-5.36c1.48-1.13,2.95-2.26,4.48-3.31,1.74-1.19,3.46-2.41,5.22-3.57l3-2c.86-.56,1.68-1.14,2.57-1.65a3,3,0,0,1,.94-.53c0,1.16.06,2.32.12,3.47a18.39,18.39,0,0,0,.48,4,3.38,3.38,0,0,0,.95,1.51,3.34,3.34,0,0,0,1.6.43,10.68,10.68,0,0,0,1.9-.09,17.57,17.57,0,0,0,4.28-1,5.47,5.47,0,0,0-.26,1.57,31,31,0,0,0,0,4.66q0,1.45.15,2.89s0,.66.08,1.24q-5,6.12-10,12.23l-1.26,1.54c-5,4.26-9.82,8.7-14.72,13-4.2,3.73-8.37,7.49-12.43,11.36-3.79,3.61-7.4,7.43-10.84,11.38a60,60,0,0,0-4.26,5.56,72,72,0,0,0-3.57,6.65,3.29,3.29,0,0,0-.16,1.32c-.08,1.82,0,3.67.05,5.49q.06,2,.21,4l.12,1.47a3.33,3.33,0,0,0,.25,1.3l.61.69a1.06,1.06,0,0,0,1.4.39l.78-.35a13.64,13.64,0,0,0,1.68-1,23.55,23.55,0,0,0,3.09-2.3c1.67-1.47,3.35-2.93,5-4.41.6-.54,1.26-1.28,1.83-1.86.89-.9,1.75-1.83,2.62-2.75q2.63-2.8,5.1-5.75c3.77-4.49,7.27-9.22,10.82-13.89,2.33-3.07,4.57-6.22,6.85-9.33l2-2.75.54-.44c1.69-1.38,3.38-2.77,5.12-4.09l19.86-15c.68-.52,1.41-1,2.11-1.49l5.23-3.7q0,.93.11,1.86a15.46,15.46,0,0,0,.37,2.75l.1.3q1.18-.12,2.37-.14a15.5,15.5,0,0,0,3.42-.6,33.49,33.49,0,0,0,6.35-2.68c4.05-2,7.93-4.3,11.76-6.71s7.71-4.89,11.56-7.35l4.72-3c-.71,1.17-1.41,2.35-2.11,3.53-.58,1-1.1,2-1.64,3a8.55,8.55,0,0,0-1.05,2.47q-.08,1-.06,1.95c0,1.64,0,3.29.13,4.92a17.54,17.54,0,0,0,.39,3.65v0q.06.21.13.43c.38,1.08,1.48,1,2.43,1a19.91,19.91,0,0,0,2-.4,17.91,17.91,0,0,0,2.4-.67,38.84,38.84,0,0,0,4.64-2,116,116,0,0,0,18.48-11.2q3.11-2.23,6.11-4.61a47.76,47.76,0,0,0-1,5.1,29.35,29.35,0,0,0-.15,4.55c0,2,.08,4.12.31,6.16a8.39,8.39,0,0,0,.31,2,5,5,0,0,0,.65,1.37,3,3,0,0,0,1,1,4.1,4.1,0,0,0,1.65.42,9.5,9.5,0,0,0,1.89-.09,12.42,12.42,0,0,0,3.76-1.14,18.46,18.46,0,0,0,5.73-4.38,38.76,38.76,0,0,0,5.16-7A82.31,82.31,0,0,0,875.15,90a42.64,42.64,0,0,1,2.08-4.86c1.4-2.54,4.08-3.89,6.6-5.1a51.51,51.51,0,0,1,8.38-2.91,61,61,0,0,1,8-1.69l1.87-.28-.06.08q-.75.93-1.54,1.82l-.06.2c-.45.38-.89.75-1.33,1.14-2,1.78-4,3.55-6,5.32-2.26,2-4.47,4-6.61,6.13a80.41,80.41,0,0,0-6.13,6.88c-.9,1.12-1.77,2.26-2.67,3.39a11.42,11.42,0,0,0-1.14,1.74,16.83,16.83,0,0,0-.77,2.37,2.92,2.92,0,0,0-.14,1.19c-.07,1.64,0,3.3,0,4.94q.06,1.8.19,3.61c0,.44.07.88.11,1.32a2.92,2.92,0,0,0,.22,1.17c1,.51,1.91,1,2.89,1.52a8.37,8.37,0,0,0,3.21.49,32.72,32.72,0,0,0,8-1.14,84.62,84.62,0,0,0,16.66-5.61A112,112,0,0,0,921.22,104a79.73,79.73,0,0,0,7.16-5.09A48.49,48.49,0,0,0,934.47,93a20.12,20.12,0,0,0,1.84-2.36,6.74,6.74,0,0,0,.68-2,12.45,12.45,0,0,0,.2-2.77q0-1.11,0-2.22l1.24-.41,10.69-3.56.17-.06-1.8,2c-.85,1-1.76,1.91-2.56,2.92l-6.75,8.59c-.43.54-.78,1.17-1.16,1.74L935,98c-.5.75-1,1.5-1.49,2.26a22.66,22.66,0,0,0-1.73,3,9.49,9.49,0,0,0-.47,2.72q-.1,1.22-.08,2.45,0,2,.07,4t.21,4c0-.07,0,.66.1,1.39s.16,1.4.28,1.39h1.32c.62,0,1.24,0,1.86,0a13.29,13.29,0,0,0,3.28-.74,38.52,38.52,0,0,0,6.55-2.9c2.21-1.13,4.44-2.24,6.62-3.42,2.61-1.41,5.15-2.94,7.66-4.5q6.5-4,12.75-8.4l2.54-1.8c.07.82.18,1.67.34,1.7l2.16.36a10.54,10.54,0,0,0,2.14-.14,17,17,0,0,0,4.24-1.31c1.43-.57,2.83-1.25,4.26-1.83s3-1.35,4.5-2.09c3.25-1.61,6.43-3.39,9.63-5.12l13.16-7.08q0,.11,0,.22c0,1.67,0,3.35.14,5q.06,1.36.19,2.72a2.69,2.69,0,0,0,.2,1.06l.22.52a2.69,2.69,0,0,0,1.08.86c1.08.65,2.61.54,3.81.53,2.68,0,5.33-.24,8-.51a74.37,74.37,0,0,1,7.63-.44,9.21,9.21,0,0,1,1.91.13,3.4,3.4,0,0,1,1.64.86,7.34,7.34,0,0,1,1.36,1.63,6.6,6.6,0,0,1,.82,1.83l-.1-.28.18.86,0,.15q.16,2,.38,3.94,0,.7.1,1.4a20.49,20.49,0,0,0,.34,3.08,11.16,11.16,0,0,0,.71,2.21,8.55,8.55,0,0,0,1.8,2.31c2.73,2.9,6.8,3.28,10.55,3.29,1.84,0,3.69-.15,5.54-.24,2.49-.11,5-.2,7.45-.43,4.67-.43,9.32-1.16,14-1.61,3-.28,5.94-.47,8.91-.7l12.73-1c2.22-.18,4.45-.22,6.68-.3l11.6-.41,9.82-.34c1.35,0,2.69-.17,4-.27l2.6-.19c.42,0,.73-.08,1.18-.14l.87-.15a1.16,1.16,0,0,0,1.13-.8,3.5,3.5,0,0,0,.16-1.4c.08-1.93,0-3.89-.06-5.82,0-.34-.26-7.23-.61-7.19l-1.15.11a4.32,4.32,0,0,1-1-.07,5.22,5.22,0,0,0-.85-.08l-2.2.06c-1.47,0-3,0-4.42.14-3.31.22-6.63.39-9.93.66s-6.52.64-9.78,1c-2.5.25-5,.42-7.51.76l-21.83,3c-6.66.91-13.21,2.4-19.9,3-1.88.18-3.77.3-5.65.46a36.07,36.07,0,0,1-6.54.06,11,11,0,0,1-4.65-1.58,11.28,11.28,0,0,1-2.26-2,7.26,7.26,0,0,1-1.42-2.27l-.18-.79v0c-.11-1.42-.24-2.84-.41-4.26-.09-1.1-.18-2.2-.31-3.3a12.62,12.62,0,0,0-.74-2.95,6.55,6.55,0,0,0-2.66-3,4.12,4.12,0,0,0-1.77-.33,23.49,23.49,0,0,0-3,.12c-1.46.08-2.93.37-4.38.55-1.82.23-3.64.5-5.47.69.93-.91,2-1.73,2.92-2.59,2-1.8,4.06-3.55,6.15-5.27l4.07-3.37c2.15-1.78,4.27-3.63,6.52-5.27a3.45,3.45,0,0,0,.16-1.39c.08-1.92,0-3.85-.06-5.77q-.07-2.11-.22-4.22l-.13-1.54a3.44,3.44,0,0,0-.26-1.37.81.81,0,0,0-1.24-.24,6.17,6.17,0,0,0-1.55.79c-1.07.64-2,1.51-3.07,2.19-.84.55-1.71,1.05-2.56,1.58-2,1.25-4,2.52-6.08,3.75-4.29,2.61-8.56,5.27-12.87,7.84-1.75,1-3.54,2-5.31,3l-1.93,1.09.09-.07,12-9.71q8.34-6.75,16.72-13.46c1.52-1.22,3.07-2.4,4.61-3.6l4.21-3.27c1.72-1.34,3.33-2.82,5-4.24a4.31,4.31,0,0,0,.2-1.74c.1-2.4,0-4.83-.07-7.23q-.09-2.64-.27-5.27c0,.09-.09-.87-.2-1.83a8.91,8.91,0,0,0-.29-1.83c-1.77,1.08-3.48,2.23-5.25,3.31-2.15,1.31-4.22,2.77-6.27,4.24s-4.37,3.19-6.54,4.8l-9.3,6.91-10.28,7.64c-1.67,1.24-3.25,2.58-4.86,3.9l-11,9L994.67,61c-1.16.95-2.22,2-3.33,3l-5,4.58c-.8.73-1.59,1.44-2.33,2.23l-4.61,4.88c-.73.78-1.44,1.58-2.16,2.36a20.69,20.69,0,0,0-2,2.61l-.38.93-.44,1.51q-2.52,1.94-5.06,3.84A186.94,186.94,0,0,1,951,99.16c-3.05,1.78-6.22,3.38-9.43,4.87l1.09-1.43c.93-1.22,1.81-2.52,2.8-3.69l8.27-9.7a62.07,62.07,0,0,1,4.48-4.73,49.31,49.31,0,0,0,4.44-4.63,12.69,12.69,0,0,0,1.54-2.49,10.71,10.71,0,0,0,.56-2l.17-.61a3.57,3.57,0,0,0,.17-1.43c.09-2,0-4-.06-6,0-.33-.37-7.43-.63-7.38-1.64.32-3.28.63-4.9,1q-1.14.36-2.26.77c-1.13.4-2.23.85-3.34,1.3L949.06,65,938,69.42l-3,1.17a14.19,14.19,0,0,0-1.62-.94,17.09,17.09,0,0,0-3.83-1.34,23,23,0,0,0-6.84-.39,42.59,42.59,0,0,0-8.63,1.35q-1.53.39-3,.9,0-.56-.06-1.12-.06-1.2-.17-2.39l-.09-.69a5.61,5.61,0,0,0-.26-.94l-.62-.48a4.37,4.37,0,0,0-1.87-.41,14,14,0,0,0-3,.2,77.94,77.94,0,0,0-15.48,3.4,43.91,43.91,0,0,0-10.53,4.65c-2.41,1.58-3.33,4.41-4.38,6.94-1,2.37-1.95,4.74-3,7.08a49.65,49.65,0,0,1-5.94,9.76,29.86,29.86,0,0,1-3.66,3.9,17.22,17.22,0,0,1-4.39,2.71,10.73,10.73,0,0,1-4.7.81,3,3,0,0,1-1.6-.46,78.74,78.74,0,0,1,3-8.16c1.12-2.62,2.56-5.08,3.69-7.69a2.83,2.83,0,0,0,.13-1.15c.07-1.59,0-3.2,0-4.79q-.06-1.75-.18-3.5c0,.1-.06-.55-.13-1.21a7.11,7.11,0,0,0-.19-1.21c-1.26.88-2.43,1.77-3.6,2.76l-2.61,2.19-6.26,5.31A119,119,0,0,1,831,95.89a72.27,72.27,0,0,1-9.07,4.75,17.24,17.24,0,0,1-2.18.79c.75-1.21,1.5-2.42,2.26-3.63l3.7-5.94c.66-1.05,1.31-2.1,2-3.15,1.14-1.77,2.51-3.43,2.69-5.6a46.51,46.51,0,0,0,0-5.57c0-1.15-.1-2.31-.18-3.46,0,.09,0-.55-.11-1.19a4.28,4.28,0,0,0-.21-1.2,47.33,47.33,0,0,0-8.47,4.93l-7,4.85a4.39,4.39,0,0,0,0-.77c.1-2.36,0-4.75-.07-7.1q-.09-2.6-.27-5.19c0,.14-.06-.82-.16-1.79a5.81,5.81,0,0,0-.32-1.8l-2.75,1A17.61,17.61,0,0,0,808,67.38c-2,1.2-3.91,2.5-5.84,3.78-1.38.92-2.7,2-4,2.94l-6.37,4.63c-.92.67-1.85,1.31-2.75,2L778.46,89l1.42-1.74c.54-.65,1.1-1.29,1.65-1.93.79-.93.57-2.25.58-3.37,0-1.43,0-2.86-.12-4.29q0-.34,0-.69l3.7-4a2.63,2.63,0,0,0,.13-1.06c.06-1.46,0-2.94,0-4.41q-.05-1.61-.16-3.21s0-.55-.11-1.12a3.92,3.92,0,0,0-.19-1.12,4.83,4.83,0,0,0-1.8,1c-.61.44-1.22,1-1.8,1.44l-2.46,2c-2.35,1.87-4.7,3.73-7.13,5.49a71.89,71.89,0,0,1-11.43,6.79,19.89,19.89,0,0,1-5.59,1.72,9.54,9.54,0,0,1-2.76,0,1.53,1.53,0,0,1-.51-.16q0-1.34-.06-2.69c-.06-1.76-.09-3.53-.29-5.28a2.57,2.57,0,0,0-.19-1l-.27-.6a.78.78,0,0,0-1.15-.33,10.12,10.12,0,0,0-1.64.78q-.83.51-1.64,1c-.55.36-1.09.76-1.63,1.13-.9.62-1.81,1.24-2.69,1.9-1.56,1.18-3.14,2.33-4.68,3.53,0-.39,0-.77,0-1.16q-.06-1.6-.16-3.2l-.1-1.17a2.6,2.6,0,0,0-.2-1l-.29-.46q-.37-.63-1.11-.21t-1.71.88l-.4.21-3.3,1.72c-1.93,1-3.8,2.16-5.7,3.24a118.18,118.18,0,0,1-15,7.49A26.06,26.06,0,0,1,701.46,87a6.25,6.25,0,0,1-3.86-1.39l-.29-.21c.59-1.32,1.23-2.6,1.92-3.87a54.34,54.34,0,0,1,5.64-8.14,2.51,2.51,0,0,0,.12-1c.06-1.39,0-2.8,0-4.2,0-.25-.16-5.2-.44-5.18a1.79,1.79,0,0,0-1.39.5q-.5.28-1,.58l-2.25,1.41c-1.16.73-2.3,1.51-3.44,2.27-2,1.34-4,2.74-6.11,4-3.07,1.88-6.12,3.79-9.24,5.59-1.4.81-2.81,1.58-4.25,2.31A52,52,0,0,1,671.25,82a11.24,11.24,0,0,1-5.43.76,8,8,0,0,1-.92-.22,79.36,79.36,0,0,1,4.45-9.82l.65-1.2c4.54-4.4,9-8.92,13.41-13.42l9.19-9.32c1.42-1.45,2.81-2.93,4.21-4.39.71-.74,1.42-1.48,2.1-2.24s1.29-1.41,1.89-2.19a6.19,6.19,0,0,0,.85-3.38,58.46,58.46,0,0,0,0-6.83q-.07-2.12-.22-4.24c0,.11-.05-.68-.13-1.46a4.73,4.73,0,0,0-.26-1.47l-2.23.78q-1.06.49-2.08,1.07A25,25,0,0,0,692,28a64.44,64.44,0,0,0-7.22,7.91c-3.77,4.76-7.24,9.71-10.58,14.77-2.48,2.62-5,5.2-7.55,7.74a240.81,240.81,0,0,1-19,16.86c-2.9,2.31-5.9,4.47-9,6.55a90,90,0,0,1-10.37,6.21,32.29,32.29,0,0,1-11.22,3.37,14.19,14.19,0,0,1-5-.66l-.05,0q.38-1.19.78-2.37c1.4-4.1,3.09-8.11,4.83-12.07q1.06-2.4,2.2-4.76,2.84-2.71,5.53-5.57c3-3.17,5.78-6.46,8.58-9.78,1.66-2,3.34-3.92,5-5.9,1.88-2.29,3.81-4.54,5.63-6.88l2.91-3.73a16,16,0,0,0,2.33-4,6.84,6.84,0,0,0,.26-1.35,14.48,14.48,0,0,0,.09-2.82c1.24-.87,2.46-1.77,3.63-2.76a34.48,34.48,0,0,0,3.77-3.81,25.18,25.18,0,0,0,2-2.75A16.25,16.25,0,0,0,661,19a2.46,2.46,0,0,0,.11-1c.06-1.35,0-2.7,0-4.05q-.05-1.48-.15-3s0-2-.27-2l-1-.39a2.2,2.2,0,0,0-.8-.16,2.1,2.1,0,0,0-1,.24ZM909.55,92a35.57,35.57,0,0,0,5.5-1.47c1.87-.59,3.72-1.17,5.62-1.66q1.91-.5,3.8-1.05A107.18,107.18,0,0,1,909.84,97a92.3,92.3,0,0,1-17.58,7.36,58.17,58.17,0,0,1-8.14,1.74,14.18,14.18,0,0,1-1.44.13c2.36-3,5-5.83,7.61-8.59.86-.9,1.79-1.74,2.68-2.6l4.7-4.54c1-.93,1.95-1.85,2.94-2.76l.09,1.11a3.18,3.18,0,0,0,.24,1.26c1.16.6,2.26,1.28,3.46,1.8a7.11,7.11,0,0,0,1.94.27l.55,0a18.48,18.48,0,0,0,2.67-.28ZM726.74,95.61h0Zm58.82-31.29h0Zm265.31-41.2h0Z"/><path class="cls-1" d="M1168.25,15.77a20.31,20.31,0,0,1-2.73,1l-3.21.87c-1,.28-2.1.51-3.15.74-2.86.63-5.72,1.33-8.6,1.88-6,1.16-11.94,2.43-17.93,3.48-11.33,2-22.63,4.1-34,5.84l-25.14,3.84c-4.28.65-8.56,1.4-12.85,2L1017.33,41Q994.67,44,972,46.68c-.26,0-.06,3.48-.06,3.68a23.93,23.93,0,0,0,.31,3.67c10.23-1,20.46-2.14,30.7-3.08l22.09-2,25.82-2.36c3.63-.33,7.25-.72,10.88-1L1103,42.49c5.08-.38,10.16-.69,15.24-1,5.59-.38,11.18-.83,16.78-1.11l10.49-.51c2.12-.1,4.25-.26,6.38-.31l9.37-.23c.84,0,1.67,0,2.51,0l2.75.06a18.16,18.16,0,0,1,2.57.31,5.73,5.73,0,0,0,.27-2.32c.14-3.21,0-6.45-.09-9.66q-.12-3.53-.36-7.06c0,.19-.09-1.12-.23-2.43a9.4,9.4,0,0,0-.41-2.45Z"/><path class="cls-1" d="M326,58.28"/></g></g></svg>