<svg xmlns="http://www.w3.org/2000/svg" viewBox="0 0 1000.97 1000"><defs><style>.cls-1{fill:#252525;}.cls-2{fill:#f4f4f5;}</style></defs><title>logo</title><g id="Layer_2" data-name="Layer 2"><g id="Layer_3" data-name="Layer 3"><rect class="cls-1" x="0.84" width="1000" height="1000"/><path class="cls-2" d="M1000.81,429.1c-14.47,5.6-29,11.23-43.88,15.57-8.63,2.51-17.39,4.83-26.18,6.7-8.19,1.74-17.24,3.33-25.54,1.33,4.37-16.69,8.76-33.14,9.85-50.44,1-16.41,1.28-34.93-2.58-51-1.57-6.53-4.35-14.28-11.9-15s-15.46,2.21-22.53,4.38c-7.9,2.44-15.87,4.71-23.72,7.32-7.34,2.44-14.64,5.79-22.41,6.57-.08-7.1-.38-14.21-.87-21.3-.11-1.69-.12-3.39-.32-5.08-.37-3.11-.67-3.33-4-4C837,311.84,847.11,299.27,858,287.63c10.43-11.13,21.08-22,30.62-34,9.65-12.08,20.59-22.93,30.63-34.7,2.42-2.84,4.74-5.75,7-8.75,1.93-2.61,5.37-6,6.46-9.06,1.23-3.39.43-8.55.33-12.09-.11-4-.28-8-.56-12,0-.59-1-6.09-.82-6.17-9,5.39-17.72,11.21-26.38,17.1a125.54,125.54,0,0,0-12.19,8.87c-3.44,3-4.41,5.59-4.47,10.06-19.36,19.59-38.24,39.36-58.32,58.24-20.42,19.2-41.91,37.29-62.9,55.85-41.9,37-84,74-127.65,109-11.72,9.41-23.52,18.75-35.92,27.26-12.14,8.34-25.38,17.3-39.66,21.44,14.85-22.64,33.3-42.22,51.4-62.24,8.41-9.3,17.83-18.28,25.09-28.52,7.65-10.78,5.29-24.62,4.42-37.17,0-.62-.82-7.24-1-7.2-14.09,5.13-25.92,18.51-36.46,28.78-12.88,12.54-25.74,25.1-38.7,37.55-24.12,23.17-49.45,45.91-79.25,61.58-15.16,8-35.15,16.88-52.72,13.13,3.36-6.57,9.65-11.62,13.28-18.13,3.76-6.75,1.89-16.87,1.57-24.32,2.48-2.85,4.94-5.74,7.39-8.62,3.12-3.67,3.06-6.42,3.17-11.12.15-6.55-.06-13.11-.33-19.65-.31-7.31-.62-14.67-1.41-22-.51-4.69-.34-4.46-5.4-3.66-7.87,1.25-14.74,5.38-21.78,8.93-14.06,7.09-27.55,15.46-40.89,23.82-15.8,9.91-31,20.25-46.16,31.16,29.39-43.12,59.32-85.91,86.86-130.25,26.37-42.47,53.78-86.6,67.46-135.1a138.38,138.38,0,0,0,5.63-40.08c0-2.53-2.14-35.64-2.45-35.54-8.38,2.78-13.73,7-19.74,13.44s-12,12.78-18,19.13c-12.81,13.47-25.47,26.88-37.49,41.06-25,29.45-50,58.76-73.82,89.17C308.08,322.65,263,385.36,228.71,453.22c-18.93,37.44-35.19,77.28-31.93,120C144.1,625.92,93.76,681,43.87,736.38,29.35,752.49.79,785.2.79,785.2L0,899.88S25,873,36.68,859.05C85,801.37,131,741.51,175.65,680.9c11-15,21.95-30,32.93-45L225.35,613c5.21-7.11,13.18-12.61,19.78-18.44,13.8-12.18,27.89-23.78,42.4-35.1C302.21,548,316.6,536,331.8,525.23c7.39-5.22,14.82-10.4,22.2-15.65-10.44,14.83-20.44,30.72-28.24,47.12-3.74,7.87-3.74,16-3.59,24.56,0,2.16,1.83,25,1.81,25,11-4.17,18.58-13,26.79-21.05,9-8.9,17.43-18.33,25.7-27.93q25.44-29.55,50-59.83c.32,5.13-.26,11.55,4.05,15.12,3.76,3.11,9.08,3.92,13.8,4.27,12.54.92,25.5-2.74,37-7.37,24.2-9.73,46-24.76,66.2-41.09-2.75,7.59-1.8,16.23-1.46,24.17.28,6.69-1.37,17.84,7.57,18.56,7.75.62,16.12-3.21,23.07-6.26,8.55-3.74,16.71-8.62,24.75-13.33,32.62-19.11,63-42.9,92.85-66-.18,7,.12,13.95.46,20.89.29,6,0,12.37,2.41,17.91,4.85-.9,9.67-7.18,13.27-10.32,4.92-4.3,9.37-9,13.9-13.75s9.31-9.52,13.77-14.45c2.17-2.39,4.15-5.31,6.56-7.45,2.6-2.31,5.81-4.17,8.63-6.2,10.83-7.76,21.47-15.88,32.81-22.88,10.14-6.27,20.81-11.8,30.81-18.26.1,3,.18,6,.31,9.07.12,2.85-.47,7.8.78,10.42,1,2.13-.6,1.29,2.45,1.71,3.5.49,7.5,0,11-.24,7.24-.51,13.95-2.69,20.79-5,13.31-4.44,27.65-8.65,41.5-11,6-1,12.58-1.83,16.24,4,3.08,4.86-1.27,15.28-2.69,20.56l.1-.35c-2.49,9.14-4.86,18.31-7.37,27.44-2.15,7.84-4.45,15.55-4.65,23.73a260.18,260.18,0,0,0,.86,26.71c.63,8,2.05,11.4,10,13.45,8.27,2.14,16.77,1.07,25-.53q13.67-2.64,27.18-6.17C979.8,479.3,993.29,474.77,1001,472M226.22,487.54c24.12-47,55.16-90.84,87.48-132.55,16.19-20.89,33-41.26,50.21-61.35,17.44-20.42,35.89-39.75,54.43-59.17,10.43-10.93,20.54-22.33,31.62-32.6,10.83-10,22-19.93,32.09-30.75-13.3,29-30.14,56.45-47.5,83.18s-35.65,53.07-54.46,78.86c-38.31,52.55-77,104.72-116.46,156.4-10.85,14.2-21.56,28.51-32.71,42.47-10.66,13.34-20.72,27.82-32.82,39.86-.29-14.65,4.72-29.46,9.7-43.05a372,372,0,0,1,18.42-41.31Zm96.7,110.87a.14.14,0,0,0,0,0v0ZM505.34,110.75v0Z"/></g></g></svg>