<svg xmlns="http://www.w3.org/2000/svg" viewBox="0 0 241.35 405.36"><defs><style>.cls-1{fill:#fff;}</style></defs><title>light</title><g id="Layer_2" data-name="Layer 2"><g id="Light"><path class="cls-1" d="M241.35,257c0-.54,0-1.07,0-1.61h-17c0,.54,0,1.07,0,1.61A103.68,103.68,0,0,1,17,257c0-.54,0-1.07,0-1.61H0c0,.54,0,1.07,0,1.61A120.7,120.7,0,0,0,105.12,376.64v8.08c-25.07,1.21-43.5,5.29-43.5,10.13,0,5.8,26.44,10.5,59.06,10.5s59.05-4.7,59.05-10.5c0-4.84-18.44-8.92-43.5-10.13v-8.08A120.7,120.7,0,0,0,241.35,257Z"/><path class="cls-1" d="M120.68,354.64A97.68,97.68,0,0,0,218.35,257V172.91q-5.56-1.56-11.2-2.95A86.51,86.51,0,0,0,134.5,85.53l-1.22-16.15c-1.8-.26-3.62-.46-5.46-.62L120.68,0l-7.14,68.77c-1.84.15-3.66.35-5.46.62l-1.22,16.15A86.5,86.5,0,0,0,34.2,170q-5.63,1.39-11.2,2.95V257A97.67,97.67,0,0,0,120.68,354.64Zm71.12-169.3q5.13,1.1,10.21,2.35v78c-2.12.14-4.42.27-6.88.4V259H191.8ZM89.58,259H86.25v8.32q-5.78-.1-11.19-.22V259H71.72V181.35q8.86-1.29,17.86-2.12Zm40,0h-3.33v8.59H115.08V259h-3.33V177.93c3-.08,5.94-.12,8.93-.12s6,0,8.93.13Zm40,0H166.3v8.1q-5.4.13-11.19.22V259h-3.33v-79.8q9,.82,17.86,2.13Zm-49-158.67c35,0,63.73,28.77,66.29,65.26a362.14,362.14,0,0,0-58.52-6c-2.56-.2-5.15-.32-7.77-.32s-5.2.11-7.77.32a362.16,362.16,0,0,0-58.52,6C56.95,129.13,85.63,100.36,120.68,100.36ZM49.56,259H46.22v7.08c-2.46-.13-4.76-.26-6.88-.4v-78q5.08-1.25,10.21-2.35Z"/></g></g></svg>